<svg width="42" height="42" viewBox="0 0 42 42" fill="none" xmlns="http://www.w3.org/2000/svg">
<rect width="42" height="42" rx="10" fill="#FCB923"/>
<g clip-path="url(#clip0_122_4704)">
<path d="M23.2978 29.553C23.5093 29.553 23.6807 29.3816 23.6807 29.1701C23.6807 28.9586 23.5093 28.7871 23.2978 28.7871C23.0863 28.7871 22.9148 28.9586 22.9148 29.1701C22.9148 29.3816 23.0863 29.553 23.2978 29.553Z" fill="white"/>
<path d="M24.8297 31.0853C25.0413 31.0853 25.2127 30.9138 25.2127 30.7023C25.2127 30.4908 25.0413 30.3193 24.8297 30.3193C24.6182 30.3193 24.4468 30.4908 24.4468 30.7023C24.4468 30.9138 24.6182 31.0853 24.8297 31.0853Z" fill="white"/>
<path d="M27.2553 32.2338H27.1277V29.8083C27.1277 28.3191 26.013 27.0862 24.5745 26.8979V26.4892C24.5745 25.5741 23.83 24.8296 22.9149 24.8296H13.7234C12.8084 24.8296 12.0638 25.5741 12.0638 26.4892V26.8979C10.6253 27.0862 9.51066 28.3191 9.51066 29.8083V32.2338H9.38297C9.17147 32.2338 9 32.4052 9 32.6168C9 32.8283 9.17147 32.9998 9.38297 32.9998H27.2553C27.4668 32.9998 27.6383 32.8283 27.6383 32.6168C27.6383 32.4052 27.4668 32.2338 27.2553 32.2338ZM26.3617 32.2338H10.2766V29.8083C10.2766 28.6116 11.2501 27.6381 12.4468 27.6381H13.9787C14.1902 27.6381 14.3617 27.4666 14.3617 27.2551C14.3617 27.0435 14.1902 26.8721 13.9787 26.8721H12.8298V26.4892C12.8298 25.9964 13.2307 25.5955 13.7234 25.5955H22.9149C23.4076 25.5955 23.8085 25.9964 23.8085 26.4892V26.8721H15.5107C15.2992 26.8721 15.1277 27.0435 15.1277 27.2551C15.1277 27.4666 15.2992 27.6381 15.5107 27.6381H24.1915C25.3882 27.6381 26.3617 28.6116 26.3617 29.8083V32.2338Z" fill="white"/>
<path d="M31.0852 14.617C30.481 14.617 29.9129 14.9056 29.5538 15.383H22.2767V13.851H22.4043C22.6158 13.851 22.7873 13.6796 22.7873 13.4681C22.7873 13.2565 22.6158 13.0851 22.4043 13.0851H22.2767V12.2741C23.0077 12.1007 23.5533 11.4428 23.5533 10.6596C23.5533 9.74447 22.8088 9 21.8937 9H14.7448C13.8297 9 13.0852 9.74447 13.0852 10.6596C13.0852 11.4428 13.6308 12.1006 14.3618 12.274V13.0851H14.2342C14.0227 13.0851 13.8512 13.2565 13.8512 13.468C13.8512 13.6796 14.0227 13.851 14.2342 13.851H14.3618V19.2127H14.2342C14.0227 19.2127 13.8512 19.3841 13.8512 19.5957C13.8512 19.8072 14.0227 19.9786 14.2342 19.9786H14.3618V20.7897C13.6308 20.9631 13.0852 21.6209 13.0852 22.4041C13.0852 23.3192 13.8297 24.0637 14.7448 24.0637H21.8937C22.8088 24.0637 23.5533 23.3192 23.5533 22.4041C23.5533 21.6209 23.0077 20.9631 22.2767 20.7897V19.9786H22.4043C22.6158 19.9786 22.7873 19.8072 22.7873 19.5957C22.7873 19.3841 22.6158 19.2127 22.4043 19.2127H22.2767V16.1489H29.7587C29.8954 16.1489 30.0218 16.076 30.0902 15.9578C30.2954 15.6031 30.6766 15.3829 31.0852 15.3829C31.7188 15.3829 32.2342 15.8984 32.2342 16.5319C32.2342 17.1654 31.7188 17.6808 31.0852 17.6808C30.6766 17.6808 30.2954 17.4606 30.0902 17.106C30.0218 16.9877 29.8955 16.9149 29.7588 16.9149H23.4256C23.2141 16.9149 23.0427 17.0863 23.0427 17.2979C23.0427 17.5094 23.2141 17.6808 23.4256 17.6808H29.5538C29.9129 18.1582 30.481 18.4468 31.0852 18.4468C32.1411 18.4468 33.0001 17.5878 33.0001 16.5319C33.0001 15.476 32.1411 14.617 31.0852 14.617ZM22.7873 22.4042C22.7873 22.8969 22.3864 23.2979 21.8937 23.2979H14.7448C14.2521 23.2979 13.8511 22.8969 13.8511 22.4042C13.8511 21.9115 14.2521 21.5106 14.7448 21.5106H21.8937C22.3864 21.5107 22.7873 21.9115 22.7873 22.4042ZM21.5108 13.851V19.2127H15.1278V13.851H21.5108ZM15.1277 13.0851V12.3192H21.5107V13.0851H15.1277ZM21.5108 19.9787V20.7447H15.1278V19.9787H21.5108ZM21.8937 11.5532H14.7448C14.2521 11.5532 13.8511 11.1523 13.8511 10.6596C13.8511 10.1669 14.2521 9.76594 14.7448 9.76594H21.8937C22.3864 9.76594 22.7873 10.1669 22.7873 10.6596C22.7873 11.1523 22.3864 11.5532 21.8937 11.5532Z" fill="white"/>
</g>
<defs>
<clipPath id="clip0_122_4704">
<rect width="24" height="24" fill="white" transform="translate(9 9)"/>
</clipPath>
</defs>
</svg>
