<svg width="42" height="42" viewBox="0 0 42 42" fill="none" xmlns="http://www.w3.org/2000/svg">
<rect width="42" height="42" rx="10" fill="#FCB923"/>
<path d="M26.4991 21.875C25.6955 21.875 24.9519 22.1638 24.362 22.645C23.5756 23.2838 23.0798 24.2725 23.0798 25.375C23.0798 26.0312 23.2593 26.6525 23.5756 27.1775C24.1654 28.1925 25.251 28.875 26.4991 28.875C27.3624 28.875 28.1488 28.5512 28.7472 28C29.0122 27.7725 29.243 27.4925 29.4225 27.1775C29.7388 26.6525 29.9183 26.0312 29.9183 25.375C29.9183 23.4412 28.3882 21.875 26.4991 21.875ZM28.2685 24.9987L26.4478 26.7225C26.3281 26.8363 26.1657 26.8975 26.0118 26.8975C25.8494 26.8975 25.687 26.8363 25.5588 26.705L24.7125 25.8388C24.4646 25.585 24.4646 25.165 24.7125 24.9112C24.9604 24.6575 25.3707 24.6575 25.6186 24.9112L26.0289 25.3313L27.3966 24.0363C27.6531 23.7913 28.0634 23.8088 28.3027 24.0712C28.5421 24.3338 28.525 24.745 28.2685 24.9987Z" fill="white"/>
<path opacity="0.4" d="M29.1404 29.3125C29.1404 29.5575 28.9524 29.75 28.713 29.75H14.0275C13.7882 29.75 13.6001 29.5575 13.6001 29.3125C13.6001 25.69 17.0877 22.75 21.3703 22.75C22.2508 22.75 23.1056 22.8725 23.892 23.1087C23.3877 23.7212 23.0799 24.5175 23.0799 25.375C23.0799 26.0312 23.2594 26.6525 23.5757 27.1775C23.7466 27.475 23.9689 27.7462 24.2253 27.9737C24.8237 28.5337 25.6187 28.875 26.4992 28.875C27.4566 28.875 28.3199 28.4725 28.9354 27.825C29.0722 28.2975 29.1404 28.7962 29.1404 29.3125Z" fill="white"/>
<path d="M21.3702 21C23.7307 21 25.6443 19.0412 25.6443 16.625C25.6443 14.2088 23.7307 12.25 21.3702 12.25C19.0097 12.25 17.0962 14.2088 17.0962 16.625C17.0962 19.0412 19.0097 21 21.3702 21Z" fill="white"/>
</svg>
