<svg width="50" height="48" viewBox="0 0 50 48" fill="none" xmlns="http://www.w3.org/2000/svg">
<rect x="0.866211" width="49.1339" height="48" rx="10" fill="#FCB923"/>
<path fill-rule="evenodd" clip-rule="evenodd" d="M21.093 19.7138C21.093 18.6268 20.1766 17.7419 19.0482 17.7419C17.921 17.7419 17.0034 18.6268 17.0034 19.7138C17.0034 20.8007 17.921 21.6856 19.0482 21.6856C20.1766 21.6856 21.093 20.8007 21.093 19.7138ZM22.8993 19.7138C22.8993 21.7611 21.1725 23.4275 19.0482 23.4275C16.9251 23.4275 15.197 21.7611 15.197 19.7138C15.197 17.6664 16.9251 16 19.0482 16C21.1725 16 22.8993 17.6664 22.8993 19.7138ZM35.6695 19.714C35.6695 19.2332 35.2648 18.843 34.7663 18.843H27.3602C26.8617 18.843 26.457 19.2332 26.457 19.714C26.457 20.1948 26.8617 20.585 27.3602 20.585H34.7663C35.2648 20.585 35.6695 20.1948 35.6695 19.714ZM29.7731 31.2862C29.7731 32.3732 30.6896 33.2581 31.8179 33.2581C32.9463 33.2581 33.8627 32.3732 33.8627 31.2862C33.8627 30.1981 32.9463 29.3144 31.8179 29.3144C30.6896 29.3144 29.7731 30.1981 29.7731 31.2862ZM27.9668 31.2862C27.9668 29.2377 29.6937 27.5725 31.8179 27.5725C33.9422 27.5725 35.6691 29.2377 35.6691 31.2862C35.6691 33.3336 33.9422 35 31.8179 35C29.6937 35 27.9668 33.3336 27.9668 31.2862ZM16.101 30.4149H23.5059C24.0045 30.4149 24.4091 30.8051 24.4091 31.2859C24.4091 31.7667 24.0045 32.1568 23.5059 32.1568H16.101C15.6025 32.1568 15.1978 31.7667 15.1978 31.2859C15.1978 30.8051 15.6025 30.4149 16.101 30.4149Z" fill="white"/>
</svg>
